<?xml version="1.0" encoding="utf-8"?>
<!-- Generator: Adobe Illustrator 23.0.3, SVG Export Plug-In . SVG Version: 6.00 Build 0)  -->
<svg version="1.1" id="Layer_1" xmlns="http://www.w3.org/2000/svg" xmlns:xlink="http://www.w3.org/1999/xlink" x="0px" y="0px"
	 viewBox="0 0 200 41" style="enable-background:new 0 0 200 41;" xml:space="preserve">
<style type="text/css">
	.st0{fill:#58585A;}
	.st1{enable-background:new    ;}
</style>
<path class="st0" d="M156.4,24.1c0.4-0.4,0.9-0.7,1.3-1.1c0.5-0.5,1.1-0.9,1.6-1.4c0.5-0.4,1-0.8,1.5-1.2c0.5-0.4,1-0.9,1.6-1.4
	c0.3-0.3,0.7-0.6,1-0.9c0,0,0.1,0,0.2,0c0.6,0.5,1.1,1,1.6,1.4c0.6,0.5,1.2,1,1.8,1.6c0.6,0.5,1.2,1,1.8,1.5c0.5,0.5,1,0.9,1.6,1.4
	c0,0,0.1,0,0.1,0.1c0.1-0.3,0.2-0.7,0.3-1c0-0.1-0.1-0.2-0.1-0.2c-0.6-0.5-1.1-1-1.7-1.5c-0.5-0.5-1.1-0.9-1.6-1.4
	c-0.5-0.4-1-0.9-1.6-1.4c-0.4-0.3-0.8-0.7-1.2-1c-0.3-0.3-0.6-0.5-0.9-0.8c-0.1-0.1-0.2-0.1-0.4,0c-0.5,0.5-1,0.9-1.6,1.4
	c-0.5,0.4-0.9,0.8-1.4,1.2c-0.5,0.4-1,0.9-1.5,1.4c-0.3,0.3-0.6,0.5-0.9,0.8c-0.4,0.4-0.9,0.7-1.4,1.1c-0.1,0.1-0.2,0.1-0.2,0.2
	c-0.3,0.2-0.3,0.2-0.2,0.6C156.3,23.6,156.3,23.8,156.4,24.1z"/>
<g class="st1">
	<path class="st0" d="M70.9,25.1h-4.5v-8.6h4.5v0.6h-3.7v3.3h3.5v0.6h-3.5v3.7h3.7V25.1z"/>
	<path class="st0" d="M83.5,25.1h-0.9l-1.9-3.9l-2.2,3.9h-0.8l2.6-4.5l-2.2-4H79l1.8,3.6l1.8-3.6h0.8l-2.2,4.1L83.5,25.1z"/>
	<path class="st0" d="M96.2,19c0,0.9-0.3,1.5-0.9,1.9c-0.6,0.4-1.5,0.6-2.6,0.6h-0.9v3.5H91v-8.6h1.7c1.2,0,2.1,0.2,2.7,0.6
		C95.9,17.5,96.2,18.2,96.2,19z M91.8,21h0.8c1,0,1.7-0.2,2.1-0.5s0.6-0.8,0.6-1.6c0-0.7-0.2-1.2-0.6-1.5c-0.4-0.3-1.1-0.4-2-0.4
		h-0.9V21z"/>
	<path class="st0" d="M108.8,25.1l-1.1-3.1h-3l-1.1,3.1h-0.9l3-8.6h0.9l3.1,8.6H108.8z M107.5,21.4l-1.1-3.2c-0.1-0.4-0.2-0.7-0.3-1
		c-0.1,0.3-0.1,0.7-0.2,1l-1.1,3.2H107.5z"/>
	<path class="st0" d="M123.4,25.1h-1.1l-4.7-7.7h-0.1c0.1,0.5,0.1,1,0.1,1.5v6.1h-0.8v-8.6h1.1l4.7,7.6h0.1c0-0.6-0.1-1.2-0.1-1.6
		v-6h0.8V25.1z"/>
	<path class="st0" d="M138.2,20.7c0,2.9-1.3,4.4-4,4.4h-2.2v-8.6h2.3c1.3,0,2.3,0.4,2.9,1.1C137.9,18.3,138.2,19.4,138.2,20.7z
		 M137.4,20.8c0-1.2-0.3-2.1-0.8-2.8c-0.5-0.6-1.3-0.9-2.3-0.9h-1.4v7.5h1.3c1.1,0,1.9-0.3,2.4-1S137.4,22,137.4,20.8z"/>
</g>
</svg>
